<svg xmlns="http://www.w3.org/2000/svg" viewBox="0 0 800 420">
  <rect width="800" height="420" fill="#080e0b"/>

  <!-- Grid lines -->
  <g stroke="#00b4d8" stroke-width="0.3" opacity="0.12">
    <line x1="0" y1="40" x2="800" y2="40"/>
    <line x1="0" y1="80" x2="800" y2="80"/>
    <line x1="0" y1="120" x2="800" y2="120"/>
    <line x1="0" y1="160" x2="800" y2="160"/>
    <line x1="0" y1="200" x2="800" y2="200"/>
    <line x1="0" y1="240" x2="800" y2="240"/>
    <line x1="0" y1="280" x2="800" y2="280"/>
    <line x1="0" y1="320" x2="800" y2="320"/>
    <line x1="0" y1="360" x2="800" y2="360"/>
    <line x1="40" y1="0" x2="40" y2="420"/>
    <line x1="80" y1="0" x2="80" y2="420"/>
    <line x1="120" y1="0" x2="120" y2="420"/>
    <line x1="160" y1="0" x2="160" y2="420"/>
    <line x1="200" y1="0" x2="200" y2="420"/>
    <line x1="240" y1="0" x2="240" y2="420"/>
    <line x1="280" y1="0" x2="280" y2="420"/>
    <line x1="320" y1="0" x2="320" y2="420"/>
    <line x1="360" y1="0" x2="360" y2="420"/>
    <line x1="400" y1="0" x2="400" y2="420"/>
    <line x1="440" y1="0" x2="440" y2="420"/>
    <line x1="480" y1="0" x2="480" y2="420"/>
    <line x1="520" y1="0" x2="520" y2="420"/>
    <line x1="560" y1="0" x2="560" y2="420"/>
    <line x1="600" y1="0" x2="600" y2="420"/>
    <line x1="640" y1="0" x2="640" y2="420"/>
    <line x1="680" y1="0" x2="680" y2="420"/>
    <line x1="720" y1="0" x2="720" y2="420"/>
    <line x1="760" y1="0" x2="760" y2="420"/>
  </g>

  <!-- Title bar -->
  <rect x="28" y="28" width="380" height="22" rx="3" fill="#0d1a14"/>
  <circle cx="44" cy="39" r="4" fill="#ff5f57" opacity="0.85"/>
  <circle cx="58" cy="39" r="4" fill="#febc2e" opacity="0.85"/>
  <circle cx="72" cy="39" r="4" fill="#28c840" opacity="0.85"/>
  <text x="210" y="44" text-anchor="middle" font-family="monospace" font-size="9" fill="#00e676" opacity="0.6">cbom-scanner.py</text>

  <!-- Terminal window -->
  <rect x="28" y="50" width="380" height="340" rx="3" fill="#040a07" stroke="#00e676" stroke-width="0.8" opacity="0.7"/>

  <!-- Terminal lines -->
  <text x="42" y="76" font-family="monospace" font-size="9.5" fill="#00e676" opacity="0.9">$ python cbom_scan.py --target 10.0.0.0/24</text>
  <text x="42" y="95" font-family="monospace" font-size="9.5" fill="#00b4d8" opacity="0.75">[*] Scanning 256 hosts...</text>
  <text x="42" y="114" font-family="monospace" font-size="9.5" fill="#00e676" opacity="0.75">[+] 10.0.0.12:443  TLS 1.3 / ECDH-P256   OK</text>
  <text x="42" y="133" font-family="monospace" font-size="9.5" fill="#ff6b6b" opacity="0.9">[!] 10.0.0.15:443  TLS 1.1              LEGACY</text>
  <text x="42" y="152" font-family="monospace" font-size="9.5" fill="#ff6b6b" opacity="0.9">[!] 10.0.0.15      RSA-1024             WEAK</text>
  <text x="42" y="171" font-family="monospace" font-size="9.5" fill="#00e676" opacity="0.75">[+] 10.0.0.22:443  TLS 1.3 / ML-KEM-768 OK</text>
  <text x="42" y="190" font-family="monospace" font-size="9.5" fill="#febc2e" opacity="0.85">[~] 10.0.0.28:22   SSH RSA-2048         REVIEW</text>
  <text x="42" y="209" font-family="monospace" font-size="9.5" fill="#ff6b6b" opacity="0.9">[!] 10.0.0.31      Cert expires: 12d    URGENT</text>
  <text x="42" y="228" font-family="monospace" font-size="9.5" fill="#00e676" opacity="0.75">[+] 10.0.0.45:443  TLS 1.3 / X25519     OK</text>
  <line x1="42" y1="242" x2="398" y2="242" stroke="#00e676" stroke-width="0.5" opacity="0.25"/>
  <text x="42" y="258" font-family="monospace" font-size="9.5" fill="#00b4d8" opacity="0.7">[*] Output: cbom_report_2025.json</text>
  <text x="42" y="275" font-family="monospace" font-size="9.5" fill="#00b4d8" opacity="0.7">[*] Risk Register: risk_register.csv</text>
  <text x="42" y="294" font-family="monospace" font-size="9.5" fill="#00e676" opacity="0.7">[v] Scan complete. 12 findings logged.</text>
  <text x="42" y="313" font-family="monospace" font-size="9.5" fill="#00e676" opacity="0.45">$ _</text>

  <!-- Risk table panel -->
  <rect x="430" y="28" width="342" height="362" rx="3" fill="#040a07" stroke="#00b4d8" stroke-width="0.8" opacity="0.6"/>
  <rect x="430" y="28" width="342" height="22" rx="3" fill="#080f14"/>
  <text x="600" y="44" text-anchor="middle" font-family="monospace" font-size="9" fill="#00b4d8" opacity="0.7">RISK REGISTER</text>

  <!-- Table header row -->
  <rect x="430" y="50" width="342" height="18" fill="#0a1520"/>
  <text x="445" y="63" font-family="monospace" font-size="8" fill="#00b4d8" opacity="0.85">HOST</text>
  <text x="540" y="63" font-family="monospace" font-size="8" fill="#00b4d8" opacity="0.85">FINDING</text>
  <text x="675" y="63" font-family="monospace" font-size="8" fill="#00b4d8" opacity="0.85">RISK</text>
  <text x="725" y="63" font-family="monospace" font-size="8" fill="#00b4d8" opacity="0.85">SCORE</text>

  <!-- Row 1 CRITICAL -->
  <rect x="430" y="68" width="342" height="18" fill="#ff000008"/>
  <text x="445" y="81" font-family="monospace" font-size="8" fill="#cccccc" opacity="0.8">10.0.0.15</text>
  <text x="540" y="81" font-family="monospace" font-size="8" fill="#cccccc" opacity="0.8">TLS 1.1 Active</text>
  <rect x="668" y="70" width="38" height="12" rx="2" fill="#ff000025"/>
  <text x="687" y="81" text-anchor="middle" font-family="monospace" font-size="8" fill="#ff6b6b">CRIT</text>
  <text x="730" y="81" font-family="monospace" font-size="8" fill="#ff6b6b">9.2</text>

  <!-- Row 2 CRITICAL -->
  <rect x="430" y="86" width="342" height="18" fill="#ff000008"/>
  <text x="445" y="99" font-family="monospace" font-size="8" fill="#cccccc" opacity="0.8">10.0.0.15</text>
  <text x="540" y="99" font-family="monospace" font-size="8" fill="#cccccc" opacity="0.8">RSA-1024 Key</text>
  <rect x="668" y="88" width="38" height="12" rx="2" fill="#ff000025"/>
  <text x="687" y="99" text-anchor="middle" font-family="monospace" font-size="8" fill="#ff6b6b">CRIT</text>
  <text x="730" y="99" font-family="monospace" font-size="8" fill="#ff6b6b">8.8</text>

  <!-- Row 3 HIGH -->
  <text x="445" y="117" font-family="monospace" font-size="8" fill="#cccccc" opacity="0.8">10.0.0.31</text>
  <text x="540" y="117" font-family="monospace" font-size="8" fill="#cccccc" opacity="0.8">Cert Expiry 12d</text>
  <rect x="668" y="106" width="38" height="12" rx="2" fill="#febc2e15"/>
  <text x="687" y="117" text-anchor="middle" font-family="monospace" font-size="8" fill="#febc2e">HIGH</text>
  <text x="730" y="117" font-family="monospace" font-size="8" fill="#febc2e">7.1</text>

  <!-- Row 4 MEDIUM -->
  <text x="445" y="135" font-family="monospace" font-size="8" fill="#cccccc" opacity="0.8">10.0.0.28</text>
  <text x="540" y="135" font-family="monospace" font-size="8" fill="#cccccc" opacity="0.8">SSH RSA-2048</text>
  <rect x="668" y="124" width="38" height="12" rx="2" fill="#febc2e10"/>
  <text x="687" y="135" text-anchor="middle" font-family="monospace" font-size="8" fill="#febc2e" opacity="0.7">MED</text>
  <text x="730" y="135" font-family="monospace" font-size="8" fill="#febc2e" opacity="0.7">4.5</text>

  <!-- Row 5 LOW -->
  <text x="445" y="153" font-family="monospace" font-size="8" fill="#cccccc" opacity="0.8">10.0.0.12</text>
  <text x="540" y="153" font-family="monospace" font-size="8" fill="#cccccc" opacity="0.8">P-256 Legacy</text>
  <rect x="668" y="142" width="38" height="12" rx="2" fill="#00e67610"/>
  <text x="687" y="153" text-anchor="middle" font-family="monospace" font-size="8" fill="#00e676" opacity="0.7">LOW</text>
  <text x="730" y="153" font-family="monospace" font-size="8" fill="#00e676" opacity="0.7">2.1</text>

  <line x1="430" y1="166" x2="772" y2="166" stroke="#00b4d8" stroke-width="0.4" opacity="0.2"/>

  <!-- Stats -->
  <text x="445" y="183" font-family="monospace" font-size="8" fill="#00b4d8" opacity="0.6">SUMMARY</text>
  <text x="445" y="200" font-family="monospace" font-size="8" fill="#ff6b6b">CRITICAL  2</text>
  <text x="540" y="200" font-family="monospace" font-size="8" fill="#febc2e">HIGH  1</text>
  <text x="620" y="200" font-family="monospace" font-size="8" fill="#febc2e" opacity="0.7">MEDIUM  1</text>
  <text x="445" y="215" font-family="monospace" font-size="8" fill="#00e676" opacity="0.7">LOW  8</text>
  <text x="510" y="215" font-family="monospace" font-size="8" fill="#00e676" opacity="0.5">PASS  0</text>

  <!-- Bar chart -->
  <rect x="445" y="260" width="10" height="55" fill="#ff6b6b" opacity="0.75"/>
  <rect x="462" y="272" width="10" height="43" fill="#febc2e" opacity="0.75"/>
  <rect x="479" y="290" width="10" height="25" fill="#febc2e" opacity="0.5"/>
  <rect x="496" y="306" width="10" height="9"  fill="#00e676" opacity="0.6"/>
  <line x1="440" y1="315" x2="515" y2="315" stroke="#00b4d8" stroke-width="0.4" opacity="0.3"/>
  <text x="477" y="328" text-anchor="middle" font-family="monospace" font-size="7.5" fill="#00b4d8" opacity="0.5">RISK DIST.</text>

  <!-- JSON preview -->
  <text x="540" y="248" font-family="monospace" font-size="7.5" fill="#00e676" opacity="0.45">output format:</text>
  <text x="540" y="264" font-family="monospace" font-size="7.5" fill="#00e676" opacity="0.45">cbom.json / SPDX</text>
  <text x="540" y="280" font-family="monospace" font-size="7.5" fill="#00b4d8" opacity="0.4">risk_register.csv</text>
  <text x="540" y="296" font-family="monospace" font-size="7.5" fill="#00b4d8" opacity="0.35">audit_report.html</text>

  <!-- Corner brackets -->
  <path d="M10,10 L38,10 L38,14 M10,10 L10,38 L14,38" fill="none" stroke="#00b4d8" stroke-width="1" opacity="0.35"/>
  <path d="M790,10 L762,10 L762,14 M790,10 L790,38 L786,38" fill="none" stroke="#00b4d8" stroke-width="1" opacity="0.35"/>
  <path d="M10,410 L38,410 L38,406 M10,410 L10,382 L14,382" fill="none" stroke="#00b4d8" stroke-width="1" opacity="0.35"/>
  <path d="M790,410 L762,410 L762,406 M790,410 L790,382 L786,382" fill="none" stroke="#00b4d8" stroke-width="1" opacity="0.35"/>

  <!-- Top label -->
  <text x="400" y="16" text-anchor="middle" font-family="monospace" font-size="11" fill="#00b4d8" opacity="0.8" letter-spacing="2">CBOM BUILDER / Cryptographic Asset Discovery</text>
</svg>
